<?xml version="1.0" encoding="UTF-8"?>
<svg id="Calque_2" data-name="Calque 2" xmlns="http://www.w3.org/2000/svg" viewBox="0 0 178.08 265.98">
  <defs>
    <style>
      .cls-1 {
        fill: #f5f5f5;
      }

      .cls-2 {
        fill: #151515;
      }
    </style>
  </defs>
  <g id="Calque_1-2" data-name="Calque 1">
    <g>
      <rect class="cls-1" x="10.73" y="5.05" width="156.63" height="255.88" rx="26.19" ry="26.19" transform="translate(-13.9 10.44) rotate(-6.23)"/>
      <rect class="cls-2" x="48.38" y="181.16" width="93.7" height="17.11" rx="8.56" ry="8.56" transform="translate(-20.01 11.45) rotate(-6.23)"/>
      <path class="cls-2" d="M116.49,64.8l-26.77,2.92-2.92-26.77c-.46-4.25-4.29-7.33-8.54-6.86h0c-4.25,.46-7.33,4.29-6.86,8.54l2.92,26.77-26.77,2.92c-4.25,.46-7.33,4.29-6.86,8.54h0c.46,4.25,4.29,7.33,8.54,6.86l26.77-2.92,2.92,26.77c.46,4.25,4.29,7.33,8.54,6.86h0c4.25-.46,7.33-4.29,6.86-8.54l-2.92-26.77,26.77-2.92c4.25-.46,7.33-4.29,6.86-8.54h0c-.46-4.25-4.29-7.33-8.54-6.86Z"/>
    </g>
  </g>
</svg>