<?xml version="1.0" encoding="UTF-8"?>
<svg id="Calque_2" data-name="Calque 2" xmlns="http://www.w3.org/2000/svg" viewBox="0 0 768.69 265.98">
  <defs>
    <style>
      .cls-1 {
        fill: #f5f5f5;
      }

      .cls-2 {
        fill: #151515;
      }
    </style>
  </defs>
  <g id="Logo">
    <g>
      <g>
        <rect class="cls-1" x="10.73" y="5.05" width="156.63" height="255.88" rx="26.19" ry="26.19" transform="translate(-13.9 10.44) rotate(-6.23)"/>
        <rect class="cls-2" x="48.38" y="181.16" width="93.7" height="17.11" rx="8.56" ry="8.56" transform="translate(-20.01 11.45) rotate(-6.23)"/>
        <path class="cls-2" d="M116.49,64.8l-26.77,2.92-2.92-26.77c-.46-4.25-4.29-7.33-8.54-6.86h0c-4.25,.46-7.33,4.29-6.86,8.54l2.92,26.77-26.77,2.92c-4.25,.46-7.33,4.29-6.86,8.54h0c.46,4.25,4.29,7.33,8.54,6.86l26.77-2.92,2.92,26.77c.46,4.25,4.29,7.33,8.54,6.86h0c4.25-.46,7.33-4.29,6.86-8.54l-2.92-26.77,26.77-2.92c4.25-.46,7.33-4.29,6.86-8.54h0c-.46-4.25-4.29-7.33-8.54-6.86Z"/>
      </g>
      <g>
        <path class="cls-1" d="M225.71,172.92c-5.39-13.02-7.72-29.43-6.99-49.23l.11-2.42c.81-18.63,3.89-33.5,9.24-44.61,5.35-11.11,12.78-19.12,22.28-24.04,9.5-4.91,20.85-7.37,34.05-7.37,10.93,0,20.13,1.98,27.61,5.94,7.48,3.96,13.2,9.19,17.16,15.68,3.96,6.49,6.01,13.48,6.16,20.96,.15,6.6-1.38,11.66-4.57,15.18s-6.95,5.28-11.28,5.28c-3.59,0-6.75-.9-9.46-2.7-2.71-1.8-4.91-4.71-6.6-8.75-3.59-10.19-10.34-15.29-20.24-15.29-4.84,0-9.35,1.65-13.53,4.95-4.18,3.3-7.55,8.45-10.12,15.46-2.57,7-3.89,16.16-3.96,27.45v1.98c-.15,15.99,1.72,27.61,5.61,34.88,3.89,7.26,11.07,10.89,21.56,10.89,7.99,0,13.71-1.87,17.16-5.61,3.45-3.74,5.39-8.51,5.83-14.3l.11-.99c.29-3.81-.29-6.45-1.76-7.92-1.47-1.47-4.47-2.27-9.02-2.42l-4.51-.11c-5.13-.15-8.91-1.34-11.33-3.58-2.42-2.24-3.63-5.19-3.63-8.86,0-4.18,1.39-7.52,4.18-10.01,2.79-2.49,7.55-3.78,14.3-3.85l18.81-.55c9.17-.15,15.6,1.85,19.31,6,3.7,4.14,5.37,11.35,5.01,21.62l-.33,6.6c-.66,19.22-5.87,33.81-15.62,43.79-9.75,9.98-22.74,14.92-38.95,14.85-12.62-.07-23.86-3.32-33.72-9.74-9.87-6.42-17.49-16.13-22.88-29.15Z"/>
        <path class="cls-1" d="M371.2,215.33c-9.39,0-16.94-3.43-22.66-10.29-5.72-6.86-8.58-17.07-8.58-30.64v-.77c0-11.51,3.1-20.61,9.3-27.28,6.2-6.67,13.99-10.01,23.38-10.01,4.11,0,7.44,.64,10.01,1.93,2.57,1.28,4.84,2.99,6.82,5.12,2.42,2.57,4.66,3.38,6.71,2.42,1.39-.73,2.09-3.41,2.09-8.03v-.66c0-9.39-4.69-14.08-14.08-14.08-4.92,0-9.35,.83-13.31,2.48-3.96,1.65-7.81,2.48-11.55,2.48-3.23,0-5.87-1.14-7.92-3.41-2.05-2.27-3.08-5.35-3.08-9.24,0-5.28,1.58-9.5,4.73-12.65,3.15-3.15,7.44-5.65,12.87-7.48,3.08-1.03,6.44-1.85,10.07-2.48,3.63-.62,7.39-.93,11.28-.93,9.68,0,17.62,1.76,23.82,5.28,6.2,3.52,10.74,9.37,13.64,17.55,2.9,8.18,4.2,19.27,3.91,33.28l-.55,17.05c-.07,4.55,.28,8.36,1.04,11.44,.77,3.08,1.6,5.94,2.48,8.58,.73,2.13,1.39,4.25,1.98,6.38,.59,2.13,.88,4.51,.88,7.15,0,3.89-1.38,7.26-4.13,10.12-2.75,2.86-6.58,4.29-11.5,4.29-2.93,0-5.59-.7-7.98-2.09-2.38-1.39-4.53-3.78-6.44-7.15-1.61-2.86-3.19-4.29-4.73-4.29s-3.23,1.32-5.06,3.96c-2.42,3.74-5.48,6.67-9.19,8.8-3.7,2.13-8.45,3.19-14.25,3.19Zm21.4-31.24c2.75-2.64,4.12-6.45,4.12-11.44v-1.43c0-4.11-1.06-7.06-3.19-8.86-2.13-1.8-5.06-2.84-8.8-3.13-4.99-.37-8.77,.68-11.33,3.13-2.57,2.46-3.85,6.03-3.85,10.73v.99c0,9.32,4.25,13.97,12.76,13.97,4.11,0,7.54-1.32,10.29-3.96Z"/>
        <path class="cls-1" d="M444.58,117.2c.37-9.9,1.85-16.54,4.46-19.91,2.6-3.37,5.7-5.06,9.3-5.06,2.13,0,3.96,.64,5.5,1.93,1.54,1.28,2.57,3.5,3.08,6.66l.33,1.54c.44,2.35,1.14,3.96,2.09,4.84,.95,.88,2.09,1.32,3.41,1.32,3.59,0,6.49-2.75,8.69-8.25,1.76-4.47,4.16-8.12,7.21-10.95,3.04-2.82,7.32-4.24,12.82-4.24s9.41,1.52,12.38,4.57c2.97,3.04,5.15,6.99,6.55,11.83,.88,3.15,1.87,5.33,2.97,6.55,1.1,1.21,2.57,1.81,4.4,1.81s3.26-.53,4.51-1.59c1.25-1.06,2.57-2.95,3.96-5.67,2.35-4.77,5.13-8.43,8.36-11,3.23-2.57,7.37-3.85,12.43-3.85,10.49,0,18.43,4.27,23.82,12.82,5.39,8.54,7.79,20.7,7.21,36.47l-.88,46.54c-.37,10.64-2.05,17.66-5.06,21.07-3.01,3.41-6.57,5.12-10.67,5.12s-7.74-1.58-10.45-4.73c-2.71-3.15-3.96-8.51-3.74-16.06l2.09-39.17c.22-6.09-.68-10.45-2.7-13.09-2.02-2.64-5.01-3.96-8.97-3.96-4.47,0-8.31,1.61-11.5,4.84-3.19,3.23-4.79,9.28-4.79,18.15l.66,35.31c-.51,7.26-2.04,12.45-4.57,15.57-2.53,3.12-6.07,4.68-10.62,4.68-4.99,0-8.56-1.63-10.73-4.9-2.16-3.26-3.54-8.31-4.12-15.13l-.99-40.71c-.07-5.65-.94-9.66-2.59-12.05-1.65-2.38-4.42-3.58-8.31-3.58-4.47,0-7.98,1.82-10.51,5.45-2.53,3.63-4.27,10.29-5.23,19.97l-2.97,34.88c-1.47,11.15-6.6,16.72-15.4,16.72-4.47,0-8.03-1.83-10.67-5.5-2.64-3.67-3.74-10.71-3.3-21.12l2.53-68.1Z"/>
        <path class="cls-1" d="M645.25,213.13c-16.06,0-28.4-4.38-37.02-13.15-8.62-8.76-12.93-23.78-12.93-45.05v-6.05c0-12.83,2.07-23.38,6.22-31.63,4.14-8.25,9.74-14.39,16.78-18.43,7.04-4.03,14.96-6.05,23.76-6.05,7.41,0,14.26,1.83,20.57,5.5,6.31,3.67,11.4,9.35,15.29,17.05,3.89,7.7,5.83,17.68,5.83,29.92s-6.31,18.08-18.92,18.15l-24.75,.44c-6.97,.22-10.45,2.71-10.45,7.48,0,4.4,1.25,7.81,3.74,10.23,2.49,2.42,7.11,3.63,13.86,3.63,3.59,0,6.67-.5,9.24-1.49,2.57-.99,4.97-1.98,7.21-2.97,2.24-.99,4.64-1.49,7.21-1.49,3.89,0,6.77,1.38,8.64,4.13,1.87,2.75,2.8,5.92,2.8,9.52s-1.34,7.02-4.02,10.07c-2.68,3.04-6.66,5.41-11.94,7.1-5.79,2.05-12.84,3.08-21.12,3.08Zm4.4-71.18c2.64,.07,4.44-.29,5.39-1.1,.95-.81,1.43-2.35,1.43-4.62v-.44c0-4.84-1.12-8.62-3.36-11.33-2.24-2.71-5.67-4.07-10.29-4.07-4.92,0-8.56,1.32-10.95,3.96-2.38,2.64-3.69,5.68-3.91,9.13-.15,2.72,.31,4.64,1.38,5.78,1.06,1.14,2.8,1.78,5.23,1.92l15.07,.77Z"/>
        <path class="cls-1" d="M758.07,202.74c-7.08,6.78-18.1,10.18-33.06,10.18-4.99,0-9.26-.38-12.82-1.15-3.56-.77-6.73-1.56-9.52-2.37-4.47-1.39-8.1-3.59-10.89-6.6-2.79-3.01-4.18-7.11-4.18-12.32,0-4.77,1.32-8.16,3.96-10.18,2.64-2.02,5.87-3.03,9.68-3.03,3.01,0,5.83,.7,8.47,2.09,2.64,1.39,5.3,2.77,7.98,4.12,2.68,1.36,5.56,2.04,8.64,2.04,3.67,0,6.18-.93,7.54-2.8,1.36-1.87,2.04-3.94,2.04-6.22,0-2.57-.73-4.8-2.2-6.71-1.47-1.91-4.62-4.14-9.46-6.71l-5.17-2.31c-8.07-4.03-14.16-7.96-18.26-11.77-4.11-3.81-6.88-7.72-8.31-11.72-1.43-4-2.15-8.23-2.15-12.71,0-11.37,3.8-19.54,11.39-24.53,7.59-4.99,17.73-7.48,30.42-7.48,4.33,0,8.6,.31,12.82,.94,4.22,.62,7.9,1.56,11.06,2.81,3.59,1.39,6.6,3.46,9.02,6.22,2.42,2.75,3.63,6.07,3.63,9.96,0,4.47-1.27,8.09-3.8,10.84-2.53,2.75-5.67,4.12-9.41,4.12s-7.52-.97-10.89-2.92c-3.37-1.94-7-2.92-10.89-2.92-3.67,0-6.4,.68-8.2,2.04-1.8,1.36-2.7,3.03-2.7,5s.59,3.98,1.76,5.78c1.17,1.8,3.7,3.39,7.59,4.79l2.75,.99c12.47,4.47,21.21,9.43,26.24,14.85,5.02,5.43,7.54,12.47,7.54,21.12,0,10.93-3.54,19.79-10.62,26.57Z"/>
      </g>
    </g>
  </g>
</svg>