<svg xmlns="http://www.w3.org/2000/svg" xmlns:xlink="http://www.w3.org/1999/xlink" width="1em" height="1em" preserveAspectRatio="xMidYMid meet" viewBox="0 0 24 24" style="-ms-transform: rotate(360deg); -webkit-transform: rotate(360deg); transform: rotate(360deg);"><path fill="#cf3" d="m19 20.75l-2.31-9A5.94 5.94 0 0 0 18 8A6 6 0 0 0 6 8a5.94 5.94 0 0 0 1.34 3.77L5 20.75a1 1 0 0 0 1.48 1.11l5.33-3.13l5.68 3.14A.91.91 0 0 0 18 22a1 1 0 0 0 1-1.25ZM12 4a4 4 0 1 1-4 4a4 4 0 0 1 4-4Zm.31 12.71a1 1 0 0 0-1 0l-3.75 2.2L9 13.21a5.94 5.94 0 0 0 5.92 0L16.45 19Z"/></svg>